<svg xmlns="http://www.w3.org/2000/svg" viewBox="13 34 74 47">
  <defs>
    <clipPath id="bowl">
      <path d="M16,43 C28,37 38,49 50,45 C62,41 72,47 84,43 L84,45 A34,34 0 0 1 16,45 Z"/>
    </clipPath>
  </defs>
  <g clip-path="url(#bowl)">
    <rect x="0" y="0" width="100" height="100" fill="#ffffff"/>
    <path d="M0,45 C18,38 34,51 50,46 C66,41 82,49 100,44 L100,100 L0,100 Z" fill="#123a5e"/>
    <path d="M0,56 C20,49 34,62 52,57 C68,52 82,60 100,55 L100,100 L0,100 Z" fill="#2e6ea4"/>
    <path d="M0,67 C18,61 36,73 54,68 C70,63 84,70 100,65 L100,100 L0,100 Z" fill="#5f97c4"/>
  </g>
</svg>
